<?xml version="1.0" encoding="UTF-8"?>
<svg xmlns="http://www.w3.org/2000/svg" xmlns:xlink="http://www.w3.org/1999/xlink" width="64pt" height="64pt" viewBox="0 0 64 64" version="1.1">
    <g id="surface1">
        <path style=" stroke:none;fill-rule:nonzero;fill:#797C79;fill-opacity:1;" d="M 19.046875 8.890625 C 9.945313 8.890625 2.539063 16.292969 2.539063 25.398438 C 2.539063 44.140625 23.738281 53.394531 30.953125 59.40625 L 31.746094 60.078125 L 32.539063 59.40625 C 39.753906 53.394531 60.953125 44.140625 60.953125 25.398438 C 60.953125 16.292969 53.546875 8.890625 44.445313 8.890625 C 39.296875 8.890625 34.773438 11.335938 31.746094 15.039063 C 28.71875 11.335938 24.195313 8.890625 19.046875 8.890625 Z M 19.046875 11.429688 C 23.917969 11.429688 28.175781 13.929688 30.675781 17.699219 L 31.746094 19.285156 L 32.816406 17.699219 C 35.316406 13.929688 39.574219 11.429688 44.445313 11.429688 C 52.171875 11.429688 58.414063 17.667969 58.414063 25.398438 C 58.414063 41.777344 40.117188 50.253906 31.746094 56.863281 C 23.371094 50.253906 5.078125 41.777344 5.078125 25.398438 C 5.078125 17.667969 11.320313 11.429688 19.046875 11.429688 Z "/>
    </g>
</svg>

